<svg xmlns="http://www.w3.org/2000/svg" viewBox="0 0 128 128" role="img" aria-label="SpectraSec avatar 15">
  <defs>
    <linearGradient id="g15" x1="18" y1="14" x2="110" y2="116" gradientUnits="userSpaceOnUse">
      <stop stop-color="#a21caf"/>
      <stop offset="1" stop-color="#93c5fd"/>
    </linearGradient>
    <filter id="glow15" x="-30%" y="-30%" width="160%" height="160%"><feGaussianBlur stdDeviation="3" result="b"/><feMerge><feMergeNode in="b"/><feMergeNode in="SourceGraphic"/></feMerge></filter>
  </defs>
  <rect width="128" height="128" rx="28" fill="#120617"/>
  <path d="M10 31h20M96 99h22M17 102h13M94 23h16" stroke="#93c5fd" stroke-width="2" stroke-linecap="round" opacity=".55"/>
  <path d="M35 89c13 18 45 18 58 0 16-23 8-55-29-64-40 9-45 41-29 64Z" fill="url(#g15)" filter="url(#glow15)"/>
  <path d="M37  " stroke="#fff" stroke-width="6" stroke-linecap="round"/>
  <path d="M48 78h32" stroke="#fff" stroke-width="5" stroke-linecap="round" fill="none" opacity=".95"/>
  <path d="M42 31 34 20m52 11 8-11" stroke="#93c5fd" stroke-width="5" stroke-linecap="round"/>
  <path d='M31 34h66M26 91h76' stroke='#93c5fd' stroke-width='3' stroke-linecap='round' opacity='.8'/>
  <path d="M18 18h92v92H18z" fill="none" stroke="#fff" stroke-opacity=".08" stroke-width="2"/>
</svg>
