<svg xmlns="http://www.w3.org/2000/svg" viewBox="0 0 128 128" role="img" aria-label="SpectraSec avatar 04">
  <defs>
    <linearGradient id="g04" x1="18" y1="14" x2="110" y2="116" gradientUnits="userSpaceOnUse">
      <stop stop-color="#f0abfc"/>
      <stop offset="1" stop-color="#60a5fa"/>
    </linearGradient>
    <filter id="glow04" x="-30%" y="-30%" width="160%" height="160%"><feGaussianBlur stdDeviation="3" result="b"/><feMerge><feMergeNode in="b"/><feMergeNode in="SourceGraphic"/></feMerge></filter>
  </defs>
  <rect width="128" height="128" rx="28" fill="#14071d"/>
  <path d="M10 31h20M96 99h22M17 102h13M94 23h16" stroke="#60a5fa" stroke-width="2" stroke-linecap="round" opacity=".55"/>
  <path d="M32 42c14-24 55-24 70 0 17 28 2 61-35 61S15 70 32 42Z" fill="url(#g04)" filter="url(#glow04)"/>
  <path d="M37  " stroke="#fff" stroke-width="6" stroke-linecap="round"/>
  <path d="M47 78c9 9 25 9 34 0" stroke="#fff" stroke-width="5" stroke-linecap="round" fill="none" opacity=".95"/>
  <path d="M42 31 34 20m52 11 8-11" stroke="#60a5fa" stroke-width="5" stroke-linecap="round"/>
  <circle cx='100' cy='30' r='8' fill='#60a5fa' opacity='.9'/><circle cx='28' cy='98' r='5' fill='#f0abfc' opacity='.95'/>
  <path d="M18 18h92v92H18z" fill="none" stroke="#fff" stroke-opacity=".08" stroke-width="2"/>
</svg>
